<svg width="36" height="36" viewBox="0 0 36 36" fill="none" xmlns="http://www.w3.org/2000/svg">
<path d="M18.42 19.1919V6.88042C18.42 6.36005 18.6125 5.9343 18.9975 5.60315C19.3825 5.27201 19.8433 5.10644 20.38 5.10644H30.075C30.6117 5.10644 31.0667 5.27201 31.44 5.60315C31.8133 5.9343 32 6.36005 32 6.88042V13.6216C32 14.1656 31.8192 14.6327 31.4575 15.023C31.0958 15.4133 30.635 15.6084 30.075 15.6084H22.095L18.42 19.1919ZM28.255 32C25.3383 32 22.4333 31.2727 19.54 29.818C16.6467 28.3633 14.0508 26.477 11.7525 24.159C9.45417 21.841 7.5875 19.2037 6.1525 16.247C4.7175 13.2904 4 10.3574 4 7.44809C4 6.78581 4.23333 6.21222 4.7 5.72733C5.16667 5.24244 5.73833 5 6.415 5H11.14C11.8867 5 12.4875 5.18922 12.9425 5.56767C13.3975 5.94612 13.695 6.50197 13.835 7.23522L14.78 10.9961C14.8733 11.6583 14.85 12.2201 14.71 12.6813C14.57 13.1426 14.3133 13.5388 13.94 13.8699L10.335 17.205C11.5017 19.0736 12.7733 20.6879 14.15 22.048C15.5267 23.408 17.055 24.5729 18.735 25.5427L22.2 22.0302C22.5967 21.6045 23.04 21.3088 23.53 21.1432C24.02 20.9777 24.5683 20.9658 25.175 21.1078L28.465 21.9238C29.1883 22.113 29.7367 22.4501 30.11 22.935C30.4833 23.4198 30.67 24.0171 30.67 24.7267V29.5164C30.67 30.226 30.4367 30.8173 29.97 31.2904C29.5033 31.7635 28.9317 32 28.255 32Z" fill="#FCFCFC"/>
</svg>
