<svg width="100" height="100" viewBox="0 0 100 100" fill="none" xmlns="http://www.w3.org/2000/svg">
<path d="M11.1239 94C9.65484 94 8.43359 93.5073 7.46019 92.522C6.48673 91.5367 6 90.3203 6 88.8728V56.7491C6 55.3103 6.4915 54.0787 7.4745 53.0542C8.45749 52.0295 9.67102 51.5172 11.1151 51.5172H23.2242V32.3686C23.2242 25.0672 25.818 18.8471 31.0056 13.7083C36.1931 8.56944 42.5072 6 49.9478 6H68.0071C75.2042 6 81.3356 8.58395 86.4013 13.7518C91.4671 18.9198 94 25.1254 94 32.3686V89.1867C94 90.6342 93.5385 91.7983 92.6155 92.679C91.6925 93.5597 90.5506 94 89.1899 94C87.8291 94 86.69 93.5597 85.7725 92.679C84.855 91.7983 84.3962 90.6342 84.3962 89.1867V82.176H67.5896V88.9148C67.5896 90.472 66.9911 91.7089 65.7941 92.6253C64.5971 93.5418 63.1774 94 61.535 94H11.1239ZM67.5896 72.654H84.3962V32.3518C84.3962 27.6907 82.8355 23.7379 79.714 20.4934C76.5926 17.2489 72.7077 15.6266 68.0593 15.6266H49.8956C45.3325 15.6266 41.3297 17.266 37.8873 20.5446C34.4448 23.8232 32.7236 27.7646 32.7236 32.3686V51.5172H61.5142C63.1896 51.5172 64.621 51.9949 65.8085 52.9503C66.9959 53.9056 67.5896 55.1635 67.5896 56.7239V72.654ZM44.8327 39.9025C43.9733 39.9025 43.2539 39.6011 42.6745 38.9984C42.0951 38.3956 41.8055 37.6806 41.8055 36.8534C41.8055 36.026 42.0951 35.3333 42.6745 34.7753C43.2539 34.2172 43.9733 33.9382 44.8327 33.9382H72.4958C73.2875 33.9382 73.9725 34.2261 74.5511 34.8018C75.1295 35.3777 75.4187 36.0689 75.4187 36.8753C75.4187 37.6819 75.1295 38.388 74.5511 38.9938C73.9725 39.5996 73.2875 39.9025 72.4958 39.9025H44.8327ZM36.6484 77.3627C37.428 77.3627 38.242 77.2517 39.0903 77.0297C39.9386 76.8077 40.7392 76.5002 41.4923 76.107L56.6999 67.3419C57.07 67.0854 57.3768 66.7999 57.6204 66.4856C57.864 66.1713 57.9858 65.7475 57.9858 65.2142C57.9858 64.2446 57.5856 63.568 56.7853 63.1843C55.985 62.8006 55.1673 62.7832 54.3321 63.132L36.6904 73.2818L19.078 63.0468C18.1537 62.685 17.3262 62.7832 16.5955 63.3413C15.8648 63.8993 15.4994 64.544 15.4994 65.2753C15.4994 65.712 15.6421 66.1076 15.9274 66.4622C16.2127 66.8168 16.4528 67.1019 16.6477 67.3175L32.0973 76.107C32.7686 76.4114 33.505 76.6968 34.3065 76.9632C35.108 77.2295 35.8886 77.3627 36.6484 77.3627Z" fill="#AF2824"/>
</svg>
